<mxfile host="www.draw.io" modified="2019-12-11T09:53:33.633Z" agent="Mozilla/5.0 (Windows NT 10.0; Win64; x64) AppleWebKit/537.36 (KHTML, like Gecko) Chrome/78.0.3904.108 Safari/537.36" etag="uj8tmFH6LfngeFk2SVfQ" version="12.3.9" type="github" pages="1">
  <diagram id="yCJGmPe3JKPQ1_LQQiUB" name="Page-1">
    <mxGraphModel dx="2249" dy="1963" grid="0" gridSize="10" guides="1" tooltips="1" connect="1" arrows="1" fold="1" page="1" pageScale="1" pageWidth="827" pageHeight="1169" background="#000000" math="0" shadow="0">
      <root>
        <mxCell id="0"/>
        <mxCell id="1" parent="0"/>
        <mxCell id="lrYNPXAiIT11SIlVla9A-9" value="Start" style="ellipse;whiteSpace=wrap;html=1;" vertex="1" parent="1">
          <mxGeometry x="59" y="-92" width="120" height="80" as="geometry"/>
        </mxCell>
        <mxCell id="lrYNPXAiIT11SIlVla9A-14" value="" style="endArrow=classic;startArrow=classic;html=1;strokeColor=#FFFFFF;fillColor=#FFFFFF;entryX=0.5;entryY=1;entryDx=0;entryDy=0;exitX=0.5;exitY=0;exitDx=0;exitDy=0;" edge="1" parent="1" target="lrYNPXAiIT11SIlVla9A-9">
          <mxGeometry width="50" height="50" relative="1" as="geometry">
            <mxPoint x="119" y="57" as="sourcePoint"/>
            <mxPoint x="464" y="88" as="targetPoint"/>
          </mxGeometry>
        </mxCell>
        <mxCell id="lrYNPXAiIT11SIlVla9A-15" value="&lt;font color=&quot;#ffffff&quot; style=&quot;font-size: 21px&quot;&gt;&lt;br&gt;Flow Chart for log in User&amp;nbsp;&lt;/font&gt;" style="text;html=1;strokeColor=none;fillColor=none;spacing=5;spacingTop=-20;whiteSpace=wrap;overflow=hidden;rounded=0;strokeWidth=3;" vertex="1" parent="1">
          <mxGeometry x="-394" y="-92" width="190" height="62" as="geometry"/>
        </mxCell>
        <mxCell id="lrYNPXAiIT11SIlVla9A-16" value="Text" style="text;html=1;align=center;verticalAlign=middle;resizable=0;points=[];;autosize=1;" vertex="1" parent="1">
          <mxGeometry x="-67" y="272" width="32" height="18" as="geometry"/>
        </mxCell>
        <mxCell id="lrYNPXAiIT11SIlVla9A-19" value="" style="endArrow=classic;startArrow=classic;html=1;strokeColor=#FFFFFF;fillColor=#FFFFFF;entryX=0.5;entryY=1;entryDx=0;entryDy=0;exitX=0.5;exitY=0;exitDx=0;exitDy=0;" edge="1" parent="1">
          <mxGeometry width="50" height="50" relative="1" as="geometry">
            <mxPoint x="118" y="185" as="sourcePoint"/>
            <mxPoint x="118" y="116" as="targetPoint"/>
          </mxGeometry>
        </mxCell>
        <mxCell id="lrYNPXAiIT11SIlVla9A-20" value="&lt;span style=&quot;white-space: normal&quot;&gt;Enter User Email&lt;/span&gt;" style="shape=parallelogram;perimeter=parallelogramPerimeter;whiteSpace=wrap;html=1;strokeWidth=3;" vertex="1" parent="1">
          <mxGeometry x="48" y="56" width="142" height="60" as="geometry"/>
        </mxCell>
        <mxCell id="lrYNPXAiIT11SIlVla9A-21" value="Enter User Password" style="shape=parallelogram;perimeter=parallelogramPerimeter;whiteSpace=wrap;html=1;strokeWidth=3;" vertex="1" parent="1">
          <mxGeometry x="41.5" y="184" width="155" height="60" as="geometry"/>
        </mxCell>
        <mxCell id="lrYNPXAiIT11SIlVla9A-22" value="login Button" style="shape=process;whiteSpace=wrap;html=1;backgroundOutline=1;strokeWidth=3;" vertex="1" parent="1">
          <mxGeometry x="59" y="290" width="120" height="60" as="geometry"/>
        </mxCell>
        <mxCell id="lrYNPXAiIT11SIlVla9A-23" value="" style="endArrow=classic;startArrow=classic;html=1;strokeColor=#FFFFFF;fillColor=#FFFFFF;entryX=0.5;entryY=1;entryDx=0;entryDy=0;" edge="1" parent="1">
          <mxGeometry width="50" height="50" relative="1" as="geometry">
            <mxPoint x="119" y="287" as="sourcePoint"/>
            <mxPoint x="119" y="244" as="targetPoint"/>
          </mxGeometry>
        </mxCell>
        <mxCell id="lrYNPXAiIT11SIlVla9A-25" value="" style="shape=flexArrow;endArrow=classic;html=1;strokeColor=#FFFFFF;fillColor=#FFFFFF;" edge="1" parent="1">
          <mxGeometry width="50" height="50" relative="1" as="geometry">
            <mxPoint x="179" y="319.5" as="sourcePoint"/>
            <mxPoint x="250" y="319.5" as="targetPoint"/>
            <Array as="points">
              <mxPoint x="206" y="320"/>
            </Array>
          </mxGeometry>
        </mxCell>
        <mxCell id="lrYNPXAiIT11SIlVla9A-26" value="Error login in" style="text;html=1;align=center;verticalAlign=middle;resizable=0;points=[];;labelBackgroundColor=#ffffff;" vertex="1" connectable="0" parent="lrYNPXAiIT11SIlVla9A-25">
          <mxGeometry x="0.0423" relative="1" as="geometry">
            <mxPoint x="-2" as="offset"/>
          </mxGeometry>
        </mxCell>
        <mxCell id="lrYNPXAiIT11SIlVla9A-27" value="" style="shape=flexArrow;endArrow=classic;html=1;strokeColor=#FFFFFF;fillColor=#FFFFFF;" edge="1" parent="1">
          <mxGeometry width="50" height="50" relative="1" as="geometry">
            <mxPoint x="59" y="322.5" as="sourcePoint"/>
            <mxPoint x="-9" y="323" as="targetPoint"/>
          </mxGeometry>
        </mxCell>
        <mxCell id="lrYNPXAiIT11SIlVla9A-30" value="&lt;span style=&quot;color: rgba(0 , 0 , 0 , 0) ; font-family: monospace ; font-size: 0px ; background-color: rgb(248 , 249 , 250)&quot;&gt;%3CmxGraphModel%3E%3Croot%3E%3CmxCell%20id%3D%220%22%2F%3E%3CmxCell%20id%3D%221%22%20parent%3D%220%22%2F%3E%3CmxCell%20id%3D%222%22%20value%3D%22%22%20style%3D%22endArrow%3Dclassic%3BstartArrow%3Dclassic%3Bhtml%3D1%3BstrokeColor%3D%23FFFFFF%3BfillColor%3D%23FFFFFF%3BentryX%3D0.5%3BentryY%3D1%3BentryDx%3D0%3BentryDy%3D0%3BexitX%3D0.5%3BexitY%3D0%3BexitDx%3D0%3BexitDy%3D0%3B%22%20edge%3D%221%22%20parent%3D%221%22%3E%3CmxGeometry%20width%3D%2250%22%20height%3D%2250%22%20relative%3D%221%22%20as%3D%22geometry%22%3E%3CmxPoint%20x%3D%22118%22%20y%3D%22185%22%20as%3D%22sourcePoint%22%2F%3E%3CmxPoint%20x%3D%22118%22%20y%3D%22116%22%20as%3D%22targetPoint%22%2F%3E%3C%2FmxGeometry%3E%3C%2FmxCell%3E%3C%2Froot%3E%3C%2FmxGraphModel%3E&lt;/span&gt;&lt;span style=&quot;color: rgba(0 , 0 , 0 , 0) ; font-family: monospace ; font-size: 0px ; background-color: rgb(248 , 249 , 250)&quot;&gt;%3CmxGraphModel%3E%3Croot%3E%3CmxCell%20id%3D%220%22%2F%3E%3CmxCell%20id%3D%221%22%20parent%3D%220%22%2F%3E%3CmxCell%20id%3D%222%22%20value%3D%22%22%20style%3D%22endArrow%3Dclassic%3BstartArrow%3Dclassic%3Bhtml%3D1%3BstrokeColor%3D%23FFFFFF%3BfillColor%3D%23FFFFFF%3BentryX%3D0.5%3BentryY%3D1%3BentryDx%3D0%3BentryDy%3D0%3BexitX%3D0.5%3BexitY%3D0%3BexitDx%3D0%3BexitDy%3D0%3B%22%20edge%3D%221%22%20parent%3D%221%22%3E%3CmxGeometry%20width%3D%2250%22%20height%3D%2250%22%20relative%3D%221%22%20as%3D%22geometry%22%3E%3CmxPoint%20x%3D%22118%22%20y%3D%22185%22%20as%3D%22sourcePoint%22%2F%3E%3CmxPoint%20x%3D%22118%22%20y%3D%22116%22%20as%3D%22targetPoint%22%2F%3E%3C%2FmxGeometry%3E%3C%2FmxCell%3E%3C%2Froot%3E%3C%2FmxGraphModel%3E&lt;/span&gt;&lt;span style=&quot;color: rgba(0 , 0 , 0 , 0) ; font-family: monospace ; font-size: 0px ; background-color: rgb(248 , 249 , 250)&quot;&gt;%3CmxGraphModel%3E%3Croot%3E%3CmxCell%20id%3D%220%22%2F%3E%3CmxCell%20id%3D%221%22%20parent%3D%220%22%2F%3E%3CmxCell%20id%3D%222%22%20value%3D%22%22%20style%3D%22endArrow%3Dclassic%3BstartArrow%3Dclassic%3Bhtml%3D1%3BstrokeColor%3D%23FFFFFF%3BfillColor%3D%23FFFFFF%3BentryX%3D0.5%3BentryY%3D1%3BentryDx%3D0%3BentryDy%3D0%3BexitX%3D0.5%3BexitY%3D0%3BexitDx%3D0%3BexitDy%3D0%3B%22%20edge%3D%221%22%20parent%3D%221%22%3E%3CmxGeometry%20width%3D%2250%22%20height%3D%2250%22%20relative%3D%221%22%20as%3D%22geometry%22%3E%3CmxPoint%20x%3D%22118%22%20y%3D%22185%22%20as%3D%22sourcePoint%22%2F%3E%3CmxPoint%20x%3D%22118%22%20y%3D%22116%22%20as%3D%22targetPoint%22%2F%3E%3C%2FmxGeometry%3E%3C%2FmxCell%3E%3C%2F&lt;/span&gt;&lt;span style=&quot;color: rgba(0 , 0 , 0 , 0) ; font-family: monospace ; font-size: 0px ; background-color: rgb(248 , 249 , 250)&quot;&gt;%3CmxGraphModel%3E%3Croot%3E%3CmxCell%20id%3D%220%22%2F%3E%3CmxCell%20id%3D%221%22%20parent%3D%220%22%2F%3E%3CmxCell%20id%3D%222%22%20value%3D%22%22%20style%3D%22endArrow%3Dclassic%3BstartArrow%3Dclassic%3Bhtml%3D1%3BstrokeColor%3D%23FFFFFF%3BfillColor%3D%23FFFFFF%3BentryX%3D0.5%3BentryY%3D1%3BentryDx%3D0%3BentryDy%3D0%3BexitX%3D0.5%3BexitY%3D0%3BexitDx%3D0%3BexitDy%3D0%3B%22%20edge%3D%221%22%20parent%3D%221%22%3E%3CmxGeometry%20width%3D%2250%22%20height%3D%2250%22%20relative%3D%221%22%20as%3D%22geometry%22%3E%3CmxPoint%20x%3D%22118%22%20y%3D%22185%22%20as%3D%22sourcePoint%22%2F%3E%3CmxPoint%20x%3D%22118%22%20y%3D%22116%22%20as%3D%22targetPoint%22%2F%3E%3C%2FmxGeometry%3E%3C%2FmxCell%3E%3C%2Froot%3E%3C%2FmxGraphModel%3ED&lt;/span&gt;" style="text;html=1;align=center;verticalAlign=middle;resizable=0;points=[];;labelBackgroundColor=#ffffff;" vertex="1" connectable="0" parent="lrYNPXAiIT11SIlVla9A-27">
          <mxGeometry x="-0.5289" y="2" relative="1" as="geometry">
            <mxPoint as="offset"/>
          </mxGeometry>
        </mxCell>
        <mxCell id="lrYNPXAiIT11SIlVla9A-33" value="OK" style="text;html=1;align=center;verticalAlign=middle;resizable=0;points=[];;labelBackgroundColor=#ffffff;" vertex="1" connectable="0" parent="lrYNPXAiIT11SIlVla9A-27">
          <mxGeometry x="-0.4415" y="-2" relative="1" as="geometry">
            <mxPoint x="-8" y="1" as="offset"/>
          </mxGeometry>
        </mxCell>
        <mxCell id="lrYNPXAiIT11SIlVla9A-36" value="Error code + Reason" style="rounded=1;whiteSpace=wrap;html=1;strokeWidth=3;" vertex="1" parent="1">
          <mxGeometry x="254" y="290" width="120" height="60" as="geometry"/>
        </mxCell>
        <mxCell id="lrYNPXAiIT11SIlVla9A-38" value="" style="endArrow=classic;html=1;strokeColor=#FFFFFF;fillColor=#FFFFFF;entryX=1;entryY=1;entryDx=0;entryDy=0;exitX=1;exitY=0.5;exitDx=0;exitDy=0;" edge="1" parent="1" source="lrYNPXAiIT11SIlVla9A-36" target="lrYNPXAiIT11SIlVla9A-9">
          <mxGeometry width="50" height="50" relative="1" as="geometry">
            <mxPoint x="288" y="285" as="sourcePoint"/>
            <mxPoint x="338" y="235" as="targetPoint"/>
          </mxGeometry>
        </mxCell>
        <mxCell id="lrYNPXAiIT11SIlVla9A-39" value="Go Home page (index)" style="rounded=1;whiteSpace=wrap;html=1;strokeWidth=3;" vertex="1" parent="1">
          <mxGeometry x="-127" y="298" width="120" height="57" as="geometry"/>
        </mxCell>
        <mxCell id="lrYNPXAiIT11SIlVla9A-40" value="End of Process" style="ellipse;whiteSpace=wrap;html=1;strokeWidth=3;" vertex="1" parent="1">
          <mxGeometry x="59" y="422" width="120" height="80" as="geometry"/>
        </mxCell>
        <mxCell id="lrYNPXAiIT11SIlVla9A-42" value="" style="shape=flexArrow;endArrow=classic;html=1;strokeColor=#FFFFFF;fillColor=#FFFFFF;entryX=0;entryY=0.5;entryDx=0;entryDy=0;" edge="1" parent="1" target="lrYNPXAiIT11SIlVla9A-40">
          <mxGeometry width="50" height="50" relative="1" as="geometry">
            <mxPoint x="-58" y="361" as="sourcePoint"/>
            <mxPoint x="66.5" y="452" as="targetPoint"/>
          </mxGeometry>
        </mxCell>
        <mxCell id="lrYNPXAiIT11SIlVla9A-43" value="" style="endArrow=none;html=1;strokeColor=#FFFFFF;fillColor=#FFFFFF;entryX=0.5;entryY=1;entryDx=0;entryDy=0;exitX=0.5;exitY=0;exitDx=0;exitDy=0;" edge="1" parent="1" source="lrYNPXAiIT11SIlVla9A-40" target="lrYNPXAiIT11SIlVla9A-22">
          <mxGeometry width="50" height="50" relative="1" as="geometry">
            <mxPoint x="97" y="423" as="sourcePoint"/>
            <mxPoint x="147" y="373" as="targetPoint"/>
          </mxGeometry>
        </mxCell>
      </root>
    </mxGraphModel>
  </diagram>
</mxfile>
